<svg width="87" height="47" viewBox="0 0 87 47" fill="none" xmlns="http://www.w3.org/2000/svg">
<g clip-path="url('#clip0_7_575')">
<path d="M41.1777 15.348C42.7755 15.348 44.0708 14.1843 44.0708 12.7488C44.0708 11.3132 42.7755 10.1495 41.1777 10.1495C39.5799 10.1495 38.2847 11.3132 38.2847 12.7488C38.2847 14.1843 39.5799 15.348 41.1777 15.348Z" fill="#F2F2F2"></path>
<path d="M23.9802 10.1495C25.3117 10.1495 26.3911 9.17967 26.3911 7.98339C26.3911 6.7871 25.3117 5.81732 23.9802 5.81732C22.6487 5.81732 21.5693 6.7871 21.5693 7.98339C21.5693 9.17967 22.6487 10.1495 23.9802 10.1495Z" fill="#F2F2F2"></path>
<path d="M16.1047 30.6549C17.4362 30.6549 18.5156 29.6851 18.5156 28.4888C18.5156 27.2925 17.4362 26.3228 16.1047 26.3228C14.7732 26.3228 13.6938 27.2925 13.6938 28.4888C13.6938 29.6851 14.7732 30.6549 16.1047 30.6549Z" fill="#F2F2F2"></path>
<path d="M13.6543 31.8101C14.3526 32.5538 15.1081 37.9152 15.9141 38.5636L53.731 38.6358C54.5371 37.9874 55.2925 32.626 55.9908 31.8823L13.6543 31.8101Z" fill="#E6E6E6"></path>
<path d="M25.4426 25.5123V32.9174H31.2167V25.5123C31.2169 25.403 31.1376 25.3064 31.0214 25.2741C30.9947 25.2662 30.9667 25.2623 30.9386 25.2625H25.7215C25.5678 25.2623 25.4429 25.374 25.4426 25.5121L25.4426 25.5123ZM27.696 28.0568C27.6991 27.7509 27.9776 27.5052 28.3181 27.5081C28.654 27.5109 28.9256 27.7549 28.9287 28.0568V28.916C28.9271 29.2218 28.6499 29.4686 28.3094 29.4671C27.9713 29.4657 27.6976 29.2198 27.696 28.916V28.0568Z" fill="#3F3D56"></path>
<path d="M16.3594 14.3556V27.8762C16.3597 28.235 16.6833 28.5257 17.0826 28.526H39.3832C39.7825 28.5258 40.1061 28.235 40.1065 27.8762V14.3556C40.1055 13.9972 39.7821 13.707 39.3832 13.7065H17.0826C16.6837 13.707 16.3603 13.9972 16.3594 14.3556Z" fill="#3F3D56"></path>
<path d="M16.8823 14.5239V27.7094C16.8827 27.9011 17.0555 28.0564 17.2689 28.0567H39.1974C39.4107 28.0564 39.5835 27.9011 39.5839 27.7094V14.5239C39.5839 14.3319 39.411 14.1763 39.1974 14.1758H17.2689C17.0553 14.1763 16.8823 14.3319 16.8823 14.5239Z" fill="#151924"></path>
<path d="M21.3538 33.703C21.399 33.7539 21.4677 33.7834 21.5402 33.7831H34.5863C34.7188 33.7829 34.8262 33.6863 34.826 33.5671C34.826 33.5524 34.8243 33.5376 34.8209 33.5232L34.6184 32.6589C34.6013 32.5873 34.5451 32.5283 34.4689 32.5022C34.4418 32.4927 34.4129 32.4878 34.3837 32.4878H21.7419C21.7128 32.4878 21.6839 32.4927 21.6567 32.5022C21.5806 32.5283 21.5243 32.5873 21.5073 32.6589L21.3048 33.5232C21.2902 33.5867 21.3082 33.6527 21.3538 33.703Z" fill="#3F3D56"></path>
<path d="M17.9741 15.9923H38.4925C38.5376 15.9914 38.5733 15.9578 38.5724 15.9174C38.5714 15.8781 38.5362 15.8465 38.4925 15.8456H17.9741C17.9291 15.8465 17.8933 15.8801 17.8943 15.9205C17.8953 15.9598 17.9304 15.9914 17.9741 15.9923Z" fill="#3F3D56"></path>
<path d="M63.9639 30.3174C63.9623 30.3138 63.9615 30.3109 63.9599 30.308C63.9288 30.2329 63.8926 30.1596 63.8514 30.0885C63.6175 29.6936 63.865 29.0871 63.6014 28.4171C63.1755 27.3311 62.6564 26.6907 61.8954 26.1167C61.8729 26.0994 61.8504 26.0828 61.8271 26.0654L61.8262 26.0647C61.3184 25.69 60.706 25.3398 59.9458 24.9037C59.7874 24.8127 59.2402 25.0755 59.253 24.625C59.2675 24.1246 59.2828 23.6062 59.0095 23.2828L58.9919 23.2618L58.9637 23.2553C58.0269 23.0888 57.0714 23.0227 56.1173 23.0582H56.1165C55.7114 23.0717 55.3091 23.1247 54.9167 23.2163C54.8878 23.2235 54.8588 23.2308 54.8307 23.2394C54.809 23.2445 54.7873 23.251 54.7656 23.2575L54.7479 23.2633L54.7343 23.2748C54.4699 23.5124 54.4088 23.9384 54.3799 24.3824V24.3831C54.3742 24.464 54.3694 24.5448 54.3654 24.6257C54.3429 25.0575 53.1833 25.4062 52.7413 25.6019C51.9111 25.9701 52.0363 26.8281 52.0267 26.8281C52.0267 26.8281 50.631 29.4026 50.6141 32.0098C50.6133 32.155 50.6122 32.3008 50.6109 32.4474C50.6012 33.6618 50.5755 34.8972 50.4743 36.0228C50.4301 36.5066 50.373 36.9694 50.2967 37.4019C49.9254 39.508 48.2434 37.7593 47.439 39.1607C47.4654 39.2985 47.5099 39.433 47.5716 39.5614C47.664 39.6105 47.7588 39.6582 47.8528 39.7059C48.2699 39.9145 48.6948 40.1092 49.1274 40.29C49.1515 40.3001 49.1756 40.3102 49.1997 40.3196C49.9932 40.6494 50.8111 40.9298 51.6475 41.1586C51.8107 41.2033 51.9738 41.2459 52.1386 41.2864C53.5958 41.6478 55.0963 41.8497 56.6075 41.8878C56.6137 41.8872 56.6198 41.8869 56.626 41.8871C58.4132 41.8427 60.1887 41.6128 61.917 41.2019C61.9412 41.1961 61.9653 41.1903 61.9894 41.1846C62.1027 41.1571 62.2152 41.1297 62.3277 41.1008C63.3224 40.8465 64.297 40.5324 65.2449 40.1607C65.2458 40.1924 65.2493 40.224 65.2553 40.2553C65.2561 40.2655 65.2577 40.2756 65.2601 40.2856C65.2617 40.2741 65.2633 40.2625 65.2641 40.251C65.269 40.217 65.273 40.1824 65.277 40.1477C65.7688 35.8387 64.7474 32.1802 63.9639 30.3174Z" fill="#CCCCCC"></path>
<path d="M56.8498 22.684C59.4272 22.684 61.5165 20.8068 61.5165 18.4912C61.5165 16.1755 59.4272 14.2983 56.8498 14.2983C54.2725 14.2983 52.1831 16.1755 52.1831 18.4912C52.1831 20.8068 54.2725 22.684 56.8498 22.684Z" fill="#FFB6B6"></path>
<path d="M57.1954 22.7595C57.9069 22.6453 58.6062 22.4767 59.2858 22.2555C59.953 22.007 61.2853 20.7117 61.5851 20.0201C61.8078 19.5063 61.8587 18.7558 61.8623 18.2168C61.8773 16.7732 61.2103 15.3917 60.027 14.4151C59.798 14.2104 59.5116 14.0651 59.1982 13.9946C59.1708 13.9901 59.1429 13.9867 59.115 13.9846C58.675 13.9589 58.2536 13.8157 57.905 13.5733C57.8368 13.5238 57.7648 13.4788 57.6895 13.4387C57.314 13.2506 56.8943 13.1451 56.4647 13.1307C55.767 13.0873 54.8415 13.4135 53.7143 14.1008C53.1479 14.4462 52.4537 14.4786 51.912 14.4683C51.8505 14.4683 51.7936 14.4978 51.7626 14.5456C51.5819 14.7708 51.313 14.9262 51.01 14.9806C50.8258 15.0204 50.681 15.2857 50.5108 15.6282C50.4722 15.706 50.4271 15.7968 50.3926 15.8532L50.3664 15.761L50.2839 15.8834C49.8593 16.5134 50.0836 17.3333 50.7848 17.7148C50.9733 17.8173 51.1848 17.8808 51.4039 17.9007C51.6005 17.9127 51.7979 17.9066 51.9931 17.8826C52.1121 17.8715 52.2352 17.8601 52.355 17.8579C53.142 17.8647 53.8672 18.2425 54.2648 18.8528C54.43 19.1024 54.7892 19.1843 55.0669 19.0359C55.1105 19.0126 55.1506 18.9842 55.1861 18.9516C55.394 18.7373 55.7056 18.6279 56.0202 18.6588C56.1602 18.6998 56.2802 18.7828 56.3602 18.8939C56.4547 19.0166 56.5878 19.1113 56.7425 19.1659C57.2606 19.3016 57.5025 20.262 57.5081 21.097C57.5134 21.9018 57.313 22.5198 57.0207 22.5998C56.7956 22.6613 56.7726 22.6806 56.7639 22.72L56.7561 22.7553L56.7885 22.7813C56.9243 22.8004 57.0631 22.793 57.1954 22.7595Z" fill="#2F2E41"></path>
<path d="M40.6787 35.7224C41.5722 35.7224 42.2966 35.5147 42.2966 35.2585C42.2966 35.0023 41.5722 34.7946 40.6787 34.7946C39.7851 34.7946 39.0608 35.0023 39.0608 35.2585C39.0608 35.5147 39.7851 35.7224 40.6787 35.7224Z" fill="#3F3D56"></path>
<path d="M40.6787 35.4132C41.5722 35.4132 42.2966 35.2055 42.2966 34.9493C42.2966 34.6931 41.5722 34.4854 40.6787 34.4854C39.7851 34.4854 39.0608 34.6931 39.0608 34.9493C39.0608 35.2055 39.7851 35.4132 40.6787 35.4132Z" fill="#3F3D56"></path>
<path d="M40.3943 35.2601L40.6354 35.2569L40.5689 31.2122C40.5492 29.8692 41.3256 28.618 42.6076 27.927L47.2091 25.4558L47.0854 25.2699L42.4839 27.7412C41.1281 28.4719 40.307 29.7951 40.3278 31.2155L40.3943 35.2601Z" fill="#3F3D56"></path>
<path d="M47.0896 27.2792C46.7664 27.2792 46.5044 27.0438 46.5044 26.7534V23.4751C46.5044 23.1847 46.7664 22.9493 47.0896 22.9493C47.4128 22.9493 47.6748 23.1847 47.6748 23.4751V26.7534C47.6748 27.0438 47.4128 27.2792 47.0896 27.2792Z" fill="#151924"></path>
<path d="M39.4369 29.7655C39.6397 30.4319 40.4053 30.8244 41.147 30.6422C41.226 30.6228 41.303 30.5971 41.3771 30.5655L44.8474 33.7337L45.3843 31.4748L42.0066 28.8125C41.6295 28.2062 40.7767 27.9893 40.1019 28.3282C39.5372 28.6117 39.2623 29.2059 39.4369 29.7655Z" fill="#FFB6B6"></path>
<path d="M57.5636 26.4574L57.5415 26.4464L55.0112 25.6646C54.3613 25.4637 53.6468 25.5234 53.0492 25.8283C52.9121 25.898 52.7831 25.9799 52.6642 26.0729L52.6634 26.073C52.2669 26.3807 51.9937 26.7968 51.8857 27.2574L50.5566 32.9266L47.8844 31.6327L46.7955 31.3991L45.8043 30.5053L43.3291 29.5998L43.1917 29.7472L41.9462 31.0847L41.8484 31.1898L44.5908 34.7544L45.82 34.8746L46.1644 35.425L46.1887 35.435L47.1964 35.8431L51.4943 37.5829L53.5756 36.1518L53.9013 35.9271C56.5939 33.6858 57.8526 31.8828 58.3781 30.5095C58.6563 29.7841 58.7295 29.1797 58.7019 28.6924C58.6164 27.1865 57.6063 26.4862 57.5636 26.4574Z" fill="#CCCCCC"></path>
<path d="M59.9425 27.839H58.7371C55.253 27.839 52.4286 30.3766 52.4286 33.5069C51.3041 34.7563 51.373 36.3251 52.4286 38.1581L48.9734 36.8639C48.4814 36.6807 47.9172 36.8906 47.7134 37.3327C47.5101 37.7734 47.7416 38.2788 48.2312 38.4633L52.4286 40.0355V40.3283C52.4286 41.2463 53.257 41.9906 54.2789 41.9906H64.4007C65.4226 41.9906 66.251 41.2463 66.251 40.3283C67.0014 37.8548 67.4711 35.456 66.251 33.5068C66.251 30.3766 63.4266 27.839 59.9425 27.839Z" fill="#3F3D56"></path>
<path d="M31.0522 23.0737C31.2297 23.0737 31.3736 22.9443 31.3736 22.7848C31.3736 22.6253 31.2297 22.496 31.0522 22.496C30.8746 22.496 30.7307 22.6253 30.7307 22.7848C30.7307 22.9443 30.8746 23.0737 31.0522 23.0737Z" fill="#F2F2F2"></path>
<path d="M32.1772 23.0737C32.3547 23.0737 32.4986 22.9443 32.4986 22.7848C32.4986 22.6253 32.3547 22.496 32.1772 22.496C31.9996 22.496 31.8557 22.6253 31.8557 22.7848C31.8557 22.9443 31.9996 23.0737 32.1772 23.0737Z" fill="#F2F2F2"></path>
<path d="M33.3022 23.0737C33.4797 23.0737 33.6236 22.9443 33.6236 22.7848C33.6236 22.6253 33.4797 22.496 33.3022 22.496C33.1246 22.496 32.9807 22.6253 32.9807 22.7848C32.9807 22.9443 33.1246 23.0737 33.3022 23.0737Z" fill="#F2F2F2"></path>
<path d="M22.9565 19.7549L25.3559 19.787C25.4225 19.7849 25.4746 19.7348 25.4723 19.675C25.4701 19.618 25.4193 19.5724 25.3559 19.5704L22.9565 19.5383C22.89 19.5403 22.8379 19.5905 22.8402 19.6503C22.8424 19.7072 22.8932 19.7529 22.9565 19.7549Z" fill="white"></path>
<path d="M25.8473 22.0217C26.1312 22.2186 26.5876 22.0463 26.6669 21.7422C26.7592 21.3878 26.4147 21.0542 26.0237 21.0619C25.5888 21.0705 25.2815 21.3991 25.2344 21.7689C25.1975 22.1099 25.3523 22.445 25.6471 22.6624C25.9606 22.9089 26.3902 22.9991 26.7928 22.9029C26.9413 22.8635 26.8781 22.6544 26.7288 22.694C26.1995 22.8166 25.6566 22.5434 25.4965 22.0739C25.4208 21.8184 25.4923 21.4993 25.7573 21.3532C25.9955 21.2218 26.3328 21.2695 26.4236 21.5327C26.4775 21.6713 26.3961 21.823 26.2418 21.8714C26.1497 21.9003 26.0476 21.8866 25.969 21.8347C25.9114 21.8049 25.8379 21.8222 25.804 21.8736C25.7721 21.9254 25.7911 21.9906 25.8473 22.0217Z" fill="white"></path>
<path d="M28.307 21.0442C28.065 21.2877 27.8483 21.5505 27.6595 21.8295L27.3778 21.1604C27.3234 21.0313 27.0903 21.0873 27.1453 21.218C27.2651 21.5024 27.3848 21.7867 27.5045 22.0711C27.3666 22.3004 27.2474 22.5383 27.1478 22.783C27.0945 22.9141 27.3274 22.9707 27.3803 22.8406C27.4498 22.6708 27.5294 22.5045 27.6187 22.3423C27.7284 22.6029 27.8381 22.8634 27.9478 23.1239C28.0022 23.253 28.2353 23.197 28.1803 23.0663C28.043 22.7403 27.9058 22.4143 27.7685 22.0883C27.9685 21.7693 28.2062 21.4706 28.4775 21.1974C28.5807 21.0938 28.4107 20.9401 28.307 21.0442Z" fill="white"></path>
<path d="M24.0258 19.6491L24.1944 22.8958C24.2016 23.0346 24.4427 23.0353 24.4354 22.8958L24.2669 19.6491C24.2597 19.5103 24.0185 19.5095 24.0258 19.6491Z" fill="white"></path>
<path d="M29.9725 21.3408H29.3652C29.3637 21.2312 29.3621 21.1216 29.3596 21.0121C29.3565 20.8729 29.1154 20.8724 29.1186 21.0121C29.121 21.1217 29.1235 21.2312 29.1259 21.3408H28.6057C28.5391 21.3429 28.487 21.393 28.4893 21.4528C28.4915 21.5097 28.5424 21.5554 28.6057 21.5574H29.1308C29.1318 21.6034 29.1329 21.6495 29.1339 21.6955C29.1305 21.9086 29.1407 22.1217 29.1644 22.3338C29.2158 22.6742 29.4727 23.0612 29.9115 23.0277C30.065 23.016 30.0663 22.7993 29.9115 22.8111C29.5155 22.8413 29.4018 22.4232 29.3869 22.1495C29.3762 21.9525 29.3716 21.7549 29.3684 21.5574H29.9725C30.0391 21.5553 30.0911 21.5051 30.0888 21.4453C30.0866 21.3884 30.0358 21.3428 29.9725 21.3408Z" fill="#F2F2F2"></path>
<path d="M6.32228 31.4289C6.24417 31.4292 6.16624 31.4358 6.08945 31.4487L4.81156 24.1804L6.09177 17.1832C6.26751 16.2228 5.54342 15.3162 4.47447 15.1583C3.50981 15.0159 2.57562 15.5333 2.28404 16.3717C1.80412 17.7515 1.56663 19.19 1.58013 20.6355L1.62478 25.4074L5.03153 32.7361C5.11689 33.3768 5.76414 33.8339 6.47721 33.7573C7.19028 33.6806 7.69914 33.099 7.61378 32.4584C7.53551 31.8709 6.9808 31.4288 6.32228 31.4289Z" fill="#FFB8B8"></path>
<path d="M3.98184 14.6938C2.27914 14.6964 0.89955 15.9359 0.896729 17.4657L1.52356 23.1552L1.57981 23.665L1.60874 23.6664L3.80987 23.7647H3.81067L4.87868 23.8123L5.06191 23.8202L5.27166 23.1552L7.06695 17.4657C7.06513 15.9356 5.68495 14.6955 3.98184 14.6938Z" fill="#E6E6E6"></path>
<path d="M4.07664 42L3.06408 39.2086C3.06408 39.2086 1.2077 37.5126 3.58884 33.0101C3.64108 32.9105 3.69572 32.8101 3.75278 32.7076C3.85243 32.5278 3.95905 32.3434 4.07262 32.1545C4.2446 31.8801 4.41898 31.5964 4.61587 31.3032L4.79588 31.3321L4.96625 31.3589L5.54888 31.4513H5.54968L13.9869 32.787C13.9869 32.787 13.8318 33.4094 13.7483 34.0772C13.6816 34.6253 13.6599 35.1798 13.8174 35.4144C14.1581 35.9386 13.6976 37.3552 13.6976 37.3552C13.6976 37.3552 13.7233 37.4924 13.7667 37.735V37.7358C13.8093 37.9718 13.8688 38.3068 13.9363 38.7126C13.9395 38.74 13.9435 38.7675 13.9484 38.795C14.0552 39.452 14.183 40.2816 14.2971 41.1733C14.3325 41.444 14.3662 41.7206 14.3984 42L4.07664 42Z" fill="#2F2E41"></path>
<path d="M1.67179 16.1655C1.88367 15.6405 2.37867 15.2487 2.98503 15.126C3.42731 15.013 3.88762 14.9678 4.34661 14.9923C5.69028 15.0399 5.35148 12.3353 6.68198 12.5104C6.68198 12.5104 7.93427 12.1089 8.91409 12.8447C9.80422 13.5131 10.4178 15.331 10.6463 15.2276C10.6948 15.206 10.8114 15.2083 10.9746 15.2278C12.881 15.4551 14.2529 16.9917 14.1397 18.7166L14.0428 20.1911C14.0428 20.1911 14.7273 21.117 13.734 22.7514L12.4826 27.7761C12.4826 27.7761 15.6136 33.3478 14.1702 34.4909C12.7268 35.6341 7.06745 33.8516 7.06745 33.8516C7.06745 33.8516 3.89381 32.9702 3.22448 32.5882C1.81065 31.7812 3.61766 29.9411 4.73488 30.0279C4.79498 29.8138 4.71585 29.5876 4.53028 29.443C4.2215 29.2658 4.56747 28.8647 4.59352 28.8279C4.56375 28.8547 4.32937 29.0753 4.15081 28.6107C3.97225 28.1461 4.52283 27.5611 4.52283 27.5611L2.96779 24.553L1.74386 22.1765L1.59504 21.9024L1.85034 20.4238L1.82645 20.3794C1.28244 19.3603 1.16205 18.2001 1.48701 17.1083C1.6049 16.7068 1.68975 16.341 1.67179 16.1655Z" fill="#E6E6E6"></path>
<path d="M14.3984 42H13.8616C14.0102 41.7134 14.1573 41.4354 14.2971 41.1733C14.3325 41.444 14.3663 41.7206 14.3984 42Z" fill="#2F2E41"></path>
<path d="M24.9357 25.1808C24.8881 25.2365 24.8462 25.2959 24.8105 25.3583L17.6317 21.8162L12.2577 16.6229C11.5201 15.9101 10.2789 15.8695 9.48556 16.5322C8.76962 17.1302 8.65309 18.1106 9.21233 18.831C10.1328 20.0167 11.2534 21.0661 12.5337 21.9415L16.7606 24.8313L25.2958 26.898C25.9119 27.2296 26.7105 27.0497 27.0795 26.4962C27.4486 25.9427 27.2484 25.2252 26.6323 24.8936C26.0674 24.5895 25.3387 24.7129 24.9357 25.1808Z" fill="#FFB8B8"></path>
<path d="M15.2186 23.7768L17.3497 21.5434L17.4684 21.4185L13.1033 16.1037C12.9146 15.9717 12.7091 15.8604 12.4911 15.7721L12.4905 15.7716C10.9396 15.1383 9.11097 15.7544 8.40607 17.1478C7.81432 18.3175 8.19505 19.6993 9.32585 20.4859L10.5998 21.2037L15.1995 23.7965L15.2186 23.7768Z" fill="#E6E6E6"></path>
<path d="M11.3937 10.0801C10.3056 11.8677 7.81067 12.5244 5.82103 11.5468C3.8314 10.5692 3.10054 8.32758 4.18861 6.53998C5.27668 4.75238 7.77166 4.09574 9.76129 5.07332C10.597 5.48396 11.2479 6.14289 11.6023 6.93727C11.6211 6.97949 11.6381 7.02171 11.655 7.06562C12.052 8.05775 11.9569 9.15517 11.3937 10.0801Z" fill="#FFB6B6"></path>
<path d="M11.9838 7.06559C11.8071 6.62144 11.8842 6.8528 11.7056 6.41034C11.8222 6.80214 11.638 7.02168 11.6549 7.06559H6.76587V4.51213C8.19819 4.0021 9.59853 3.56808 10.4444 4.51213C12.014 4.51219 13.2864 5.65538 13.2864 7.0656L11.9838 7.06559Z" fill="#2F2E41"></path>
<path d="M10.2509 14.1636C10.2471 14.1164 10.2415 14.0674 10.234 14.0201C10.1683 13.6732 10.0618 13.3335 9.91632 13.0068C9.77535 12.6505 9.63249 12.2924 9.48965 11.9361C9.6736 12.5829 9.6175 13.266 9.32987 13.8816C8.50469 13.304 9.02537 11.9834 7.94643 11.9834C5.35249 11.9834 2.68335 10.0936 2.68335 7.76138C2.68335 5.43082 3.79611 3.68799 6.39006 3.68799C8.98589 3.68799 11.0911 4.7553 11.1419 7.08586C7.94643 7.76139 10.8543 13.9272 10.2509 14.1636Z" fill="#2F2E41"></path>
<path d="M3.00747 7.40417C4.66846 7.40417 6.01495 6.19441 6.01495 4.70209C6.01495 3.20976 4.66846 2 3.00747 2C1.34649 2 0 3.20976 0 4.70209C0 6.19441 1.34649 7.40417 3.00747 7.40417Z" fill="#2F2E41"></path>
<path d="M18.8628 15.3518C19.0634 15.3518 19.2259 15.2025 19.2259 15.0183C19.2259 14.8341 19.0634 14.6848 18.8628 14.6848C18.6623 14.6848 18.4998 14.8341 18.4998 15.0183C18.4998 15.2025 18.6623 15.3518 18.8628 15.3518Z" fill="#3F3D56"></path>
<path d="M20.1172 15.3518C20.3178 15.3518 20.4803 15.2025 20.4803 15.0183C20.4803 14.8341 20.3178 14.6848 20.1172 14.6848C19.9167 14.6848 19.7542 14.8341 19.7542 15.0183C19.7542 15.2025 19.9167 15.3518 20.1172 15.3518Z" fill="#3F3D56"></path>
<path d="M21.3714 15.3518C21.5719 15.3518 21.7345 15.2025 21.7345 15.0183C21.7345 14.8341 21.5719 14.6848 21.3714 14.6848C21.1709 14.6848 21.0083 14.8341 21.0083 15.0183C21.0083 15.2025 21.1709 15.3518 21.3714 15.3518Z" fill="#3F3D56"></path>
<path d="M22.8016 15.2819C22.7904 15.2819 22.7793 15.278 22.7709 15.2703L22.5259 15.0453C22.5096 15.0303 22.5096 15.0063 22.5259 14.9913L22.7709 14.7663C22.7875 14.7511 22.8147 14.7509 22.8316 14.7657C22.8486 14.7806 22.8489 14.8051 22.8323 14.8203L22.6167 15.0183L22.8323 15.2163C22.8489 15.2316 22.8486 15.256 22.8316 15.2709C22.8233 15.2782 22.8124 15.2819 22.8016 15.2819Z" fill="#3F3D56"></path>
<path d="M23.2133 15.2819C23.2025 15.2819 23.1917 15.2783 23.1833 15.2709C23.1664 15.256 23.1661 15.2316 23.1827 15.2164L23.3983 15.0183L23.1827 14.8203C23.1661 14.8051 23.1664 14.7807 23.1833 14.7658C23.2002 14.7509 23.2275 14.7511 23.244 14.7664L23.489 14.9914C23.5053 15.0064 23.5053 15.0303 23.489 15.0453L23.244 15.2703C23.2356 15.278 23.2245 15.2819 23.2133 15.2819Z" fill="#3F3D56"></path>
<path d="M36.8311 14.7234H36.3755C36.3236 14.7234 36.2815 14.7613 36.2815 14.8079V15.2176C36.2815 15.2643 36.3236 15.3021 36.3755 15.3021H36.8311C36.883 15.3021 36.9255 15.2643 36.9255 15.2176V14.8079C36.9255 14.7613 36.883 14.7234 36.8311 14.7234Z" fill="#3F3D56"></path>
<path d="M35.7146 14.7234H35.2591C35.2071 14.7234 35.165 14.7613 35.165 14.8079V15.2176C35.165 15.2643 35.2071 15.3021 35.2591 15.3021H35.7146C35.7666 15.3021 35.8091 15.2643 35.8091 15.2176V14.8079C35.8091 14.7613 35.7666 14.7234 35.7146 14.7234Z" fill="#3F3D56"></path>
<path d="M37.8828 14.7427H37.4273C37.3753 14.7427 37.3333 14.7805 37.3333 14.8272V15.2369C37.3333 15.2836 37.3753 15.3214 37.4273 15.3214H37.8828C37.9348 15.3214 37.9773 15.2836 37.9773 15.2369V14.8272C37.9773 14.7805 37.9348 14.7427 37.8828 14.7427Z" fill="#3F3D56"></path>
<path d="M30.3143 14.8986H26.3021C26.2386 14.8986 26.1875 14.9449 26.1875 15.0016C26.1875 15.0583 26.2386 15.1046 26.3021 15.1046H30.3143C30.3775 15.1046 30.429 15.0583 30.429 15.0016C30.429 14.9449 30.3775 14.8986 30.3143 14.8986Z" fill="#3F3D56"></path>
</g>
<defs>
<clipPath id="clip0_7_575">
<rect width="67" height="40" fill="white" transform="translate(0 2)"></rect>
</clipPath>
</defs>
</svg>
